# xmcd
#
# Track frame offsets: 
#        150
#        27238
#        60011
#        75702
#        117641
#        141076
#        174433
#        209383
#        232950
#        249171
#        267648
#        289835
#        309296
#
# Disc length: 4510 seconds
#
# Revision: 0
# Processed by: cddbd v1.5.2PL0 Copyright (c) Steve Scherf et al.
# Submitted via: ExactAudioCopy v0.99pb5
#
DISCID=ae119c0d
DTITLE=Krzak - Live 1982 - 2007 [CD 2]
DYEAR=2007
DGENRE=R&B
TTITLE0=Winter Rock [Koncert w Skoczowie 2007]
TTITLE1=Skalki [Koncert w Skoczowie 2007]
TTITLE2=Down the Road [ZakopiaDska Wiosna Jazzowa 2007]
TTITLE3=Blues E-dur [ZakopiaDska Wiosna Jazzowa 2007]
TTITLE4=Skoczus [ZakopiaDska Wiosna Jazzowa 2007]
TTITLE5=Jacky 2004 [ZakopiaDska Wiosna Jazzowa 2007]
TTITLE6=Kawie [ZakopiaDska Wiosna Jazzowa 2007]
TTITLE7=Czakus [ZakopiaDska Wiosna Jazzowa 2007]
TTITLE8=Basia mojo [ZakopiaDska Wiosna Jazzowa 2007]
TTITLE9=Sciepka [ZakopiaDska Wiosna Jazzowa 2007]
TTITLE10=Winter Rock [ZakopiaDska Wiosna Jazzowa 2007]
TTITLE11=Skalki [ZakopiaDska Wiosna Jazzowa 2007]
TTITLE12=Lakis [ZakopiaDska Wiosna Jazzowa 2007]
EXTD=
EXTT0=
EXTT1=
EXTT2=
EXTT3=
EXTT4=
EXTT5=
EXTT6=
EXTT7=
EXTT8=
EXTT9=
EXTT10=
EXTT11=
EXTT12=
PLAYORDER=
